<svg width="20" height="20" viewBox="0 0 20 20" fill="none" xmlns="http://www.w3.org/2000/svg">
<path fill-rule="evenodd" clip-rule="evenodd" d="M2.5 4C2.5 3.44772 2.8731 3 3.33333 3H16.6667C17.1269 3 17.5 3.44772 17.5 4C17.5 4.55228 17.1269 5 16.6667 5H3.33333C2.8731 5 2.5 4.55228 2.5 4ZM2.5 10C2.5 9.44772 2.8731 9 3.33333 9H16.6667C17.1269 9 17.5 9.44772 17.5 10C17.5 10.5523 17.1269 11 16.6667 11H3.33333C2.8731 11 2.5 10.5523 2.5 10ZM3.33333 15C2.8731 15 2.5 15.4477 2.5 16C2.5 16.5523 2.8731 17 3.33333 17H16.6667C17.1269 17 17.5 16.5523 17.5 16C17.5 15.4477 17.1269 15 16.6667 15H3.33333Z" fill="white"/>
</svg>
