<!DOCTYPE svg PUBLIC "-//W3C//DTD SVG 1.1//EN" "http://www.w3.org/Graphics/SVG/1.1/DTD/svg11.dtd">
<!-- Uploaded to: SVG Repo, www.svgrepo.com, Transformed by: SVG Repo Mixer Tools -->
<svg fill="#ffffff" height="800px" width="800px" version="1.1" id="Layer_1" xmlns="http://www.w3.org/2000/svg" xmlns:xlink="http://www.w3.org/1999/xlink" viewBox="0 0 512 512" xml:space="preserve" stroke="#ffffff">
<g id="SVGRepo_bgCarrier" stroke-width="0"/>
<g id="SVGRepo_tracerCarrier" stroke-linecap="round" stroke-linejoin="round"/>
<g id="SVGRepo_iconCarrier"> <g> <g> <path d="M451.194,161.86c-0.196-0.964-0.482-1.912-0.858-2.816c-0.376-0.903-0.843-1.792-1.385-2.605 c-0.557-0.828-1.19-1.596-1.882-2.289c-0.693-0.693-1.461-1.325-2.289-1.867c-0.813-0.542-1.686-1.009-2.591-1.385 c-0.917-0.376-1.866-0.663-2.814-0.858c-1.959-0.392-3.945-0.392-5.888,0c-0.968,0.196-1.915,0.482-2.819,0.858 c-0.919,0.376-1.792,0.843-2.605,1.385c-0.828,0.542-1.596,1.174-2.289,1.867c-0.693,0.693-1.325,1.461-1.867,2.289 c-0.542,0.813-1.009,1.702-1.385,2.605c-0.376,0.904-0.663,1.852-0.858,2.816c-0.196,0.979-0.301,1.957-0.301,2.936 c0,3.975,1.611,7.86,4.413,10.646c0.693,0.693,1.461,1.325,2.289,1.882c0.813,0.542,1.686,1.009,2.605,1.385 c0.903,0.376,1.851,0.663,2.816,0.858c0.964,0.196,1.958,0.286,2.935,0.286c0.979,0,1.974-0.09,2.953-0.286 c0.949-0.196,1.897-0.482,2.814-0.858c0.905-0.376,1.778-0.843,2.591-1.385c0.828-0.557,1.596-1.19,2.289-1.882 c2.801-2.801,4.412-6.67,4.412-10.646C451.479,163.817,451.389,162.839,451.194,161.86z"/> </g> </g> <g> <g> <path d="M433.149,108.755c-2.177-4.287-4.541-8.545-7.021-12.654c-17.364-28.768-41.922-52.848-71.018-69.635 C325.104,9.152,290.833,0,256,0C146.501,0,57.416,89.085,57.416,198.584v34.399c-30.064,13.531-51.06,43.75-51.06,78.801 c0,47.632,38.751,86.384,86.384,86.384h14.644c7.008,20.585,26.516,35.441,49.442,35.441c28.798,0,52.226-23.428,52.226-52.226 V242.185c0-28.798-23.428-52.226-52.226-52.226c-22.925,0-42.434,14.856-49.442,35.441H92.74c-1.75,0-3.484,0.068-5.208,0.172 v-26.986c0-92.896,75.576-168.47,168.469-168.47c59.565,0,113.525,30.486,144.346,81.549c2.102,3.484,4.106,7.094,5.952,10.73 c3.767,7.414,12.832,10.369,20.243,6.606C433.958,125.234,436.915,116.169,433.149,108.755z M134.714,381.381V242.186 c0-12.192,9.918-22.111,22.111-22.111c12.192,0,22.111,9.918,22.111,22.111v139.195c0,12.192-9.918,22.111-22.111,22.111 c-12.191,0-22.109-9.918-22.111-22.109C134.714,381.383,134.714,381.383,134.714,381.381z M92.74,255.514h11.859v112.536H92.74 c-31.026,0.001-56.269-25.241-56.269-56.267C36.471,280.756,61.713,255.514,92.74,255.514z"/> </g> </g> <g> <g> <path d="M454.584,232.981v-19.34c0-8.316-6.743-15.058-15.058-15.058c-8.315,0-15.058,6.741-15.058,15.058v11.929 c-1.724-0.102-3.459-0.172-5.208-0.172h-14.643c-7.008-20.585-26.516-35.441-49.442-35.441c-28.798,0-52.226,23.428-52.226,52.226 V381.38c0,28.798,23.428,52.226,52.226,52.226c22.927,0,42.434-14.856,49.442-35.441h14.643c4.216,0,8.357-0.318,12.412-0.905 v55.305h-120.06c-6.128-17.316-22.66-29.76-42.05-29.76h-25.619c-24.591,0-44.598,20.007-44.598,44.598S219.353,512,243.943,512 h25.619c19.227,0,35.65-12.231,41.901-29.32H446.73c8.315,0,15.058-6.741,15.058-15.058v-80.697 c26.159-14.862,43.857-42.967,43.857-75.143C505.644,276.731,484.648,246.512,454.584,232.981z M377.284,381.378v0.002 c0,12.194-9.918,22.111-22.111,22.111c-12.192,0-22.111-9.918-22.111-22.111V242.183c0-12.192,9.918-22.111,22.111-22.111 c12.192,0,22.111,9.918,22.111,22.111V381.378z M283.939,469.08c-0.837,7.199-6.96,12.805-14.377,12.805h-25.619 c-7.985,0-14.482-6.496-14.482-14.482c0-7.987,6.496-14.482,14.482-14.482h25.619c7.484,0,13.66,5.705,14.407,12.995 c-0.063,0.562-0.104,1.129-0.104,1.706C283.866,468.113,283.893,468.599,283.939,469.08z M419.26,368.051h-11.861V255.515h11.861 c31.026,0,56.269,25.242,56.269,56.269S450.286,368.051,419.26,368.051z"/> </g> </g> </g>
</svg>