<svg width="32" height="32" viewBox="0 0 32 32" fill="none" xmlns="http://www.w3.org/2000/svg">
<rect x="6" y="12" width="20" height="14" rx="1" stroke="white" stroke-width="2" stroke-linecap="round" stroke-linejoin="round"/>
<path d="M6 18.5L4.22278 10.5025C4.10071 9.95321 4.45574 9.41138 5.0081 9.30398L21.069 6.18102C21.591 6.07953 22.1011 6.40425 22.23 6.9201L23.5 12" stroke="white" stroke-width="2" stroke-linecap="round" stroke-linejoin="round"/>
<path d="M18.9977 18.5243L18.3463 17.7656L17.5187 18.4763L18.2984 19.2391L18.9977 18.5243ZM28.385 19.5243C28.9373 19.5243 29.385 19.0766 29.385 18.5243C29.385 17.972 28.9373 17.5243 28.385 17.5243L28.385 19.5243ZM21.0489 21.9298C21.4437 22.316 22.0768 22.309 22.463 21.9142C22.8492 21.5194 22.8422 20.8863 22.4475 20.5001L21.0489 21.9298ZM22.3996 16.9211C22.8186 16.5613 22.8666 15.93 22.5068 15.511C22.147 15.092 21.5157 15.044 21.0967 15.4038L22.3996 16.9211ZM18.9977 19.5243L28.385 19.5243L28.385 17.5243L18.9977 17.5243L18.9977 19.5243ZM18.2984 19.2391L21.0489 21.9298L22.4475 20.5001L19.697 17.8095L18.2984 19.2391ZM19.6492 19.283L22.3996 16.9211L21.0967 15.4038L18.3463 17.7656L19.6492 19.283Z" fill="#F7A600"/>
</svg>
