<svg width="24" height="24" viewBox="0 0 24 24" fill="none" xmlns="http://www.w3.org/2000/svg">
<path fill-rule="evenodd" clip-rule="evenodd" d="M15.8225 9V10.8276H13.0105V12.0224C15.2875 12.1246 17 12.566 17 13.0948C17 13.6236 15.2875 14.0648 13.0105 14.1672V18H11.0071V14.1681C8.72123 14.0672 7 13.6252 7 13.0948C7 12.5645 8.72125 12.1224 11.0071 12.0216V10.8276H8.19509V9H15.8225ZM13.0105 13.7094C14.8079 13.6282 16.1388 13.3356 16.1388 12.9868C16.1388 12.638 14.8077 12.3453 13.0088 12.2642V13.3685C12.6899 13.3853 12.3497 13.3942 11.9982 13.3942C11.6523 13.3942 11.3188 13.3854 11.0052 13.3694V12.2609C9.19912 12.3418 7.85938 12.6346 7.85938 12.9851C7.85938 13.3356 9.19889 13.6292 11.0052 13.7092L11.1242 13.7143H11.1258C11.2453 13.7188 11.3666 13.7225 11.4898 13.7252H11.5012L11.6051 13.7274H11.6353L11.7223 13.7285H12.2789L12.3668 13.7274H12.3982L12.5096 13.7251H12.5148C12.5978 13.7233 12.6798 13.7209 12.7608 13.7182H12.7726L12.8815 13.7143H12.8943L13.0105 13.7094Z" fill="#F7A600"/>
<circle cx="12" cy="12" r="9" stroke="white" stroke-width="2" stroke-linecap="round"/>
<line x1="15" y1="6" x2="21" y2="6" stroke="#F7A600" stroke-width="2" stroke-linecap="round"/>
<line x1="18" y1="3" x2="18" y2="9" stroke="#F7A600" stroke-width="2" stroke-linecap="round"/>
</svg>
