<svg width="32" height="32" viewBox="0 0 32 32" fill="none" xmlns="http://www.w3.org/2000/svg">
<path d="M7.5 9.40442L22.785 6.22408C23.3952 6.10032 23.9844 6.46582 24.101 7.04044L24.6285 9.64157" stroke="white" stroke-width="2"/>
<path d="M3 11.1045C3 10.1657 3.6467 9.40454 4.44444 9.40454H27.5556C28.3533 9.40454 29 10.1657 29 11.1045V14.4885C29 14.9668 28.5933 15.3398 28.1642 15.5512C27.3825 15.9361 26.8333 16.8449 26.8333 17.9045C26.8333 18.9642 27.3825 19.8729 28.1642 20.2579C28.5933 20.4692 29 20.8423 29 21.3206V24.7045C29 25.6434 28.3533 26.4045 27.5556 26.4045H4.44444C3.6467 26.4045 3 25.6434 3 24.7045V21.3206C3 20.8423 3.40666 20.4692 3.83576 20.2579C4.61746 19.8729 5.16667 18.9642 5.16667 17.9045C5.16667 16.8449 4.61746 15.9361 3.83576 15.5512C3.40666 15.3398 3 14.9668 3 14.4885V11.1045Z" stroke="white" stroke-width="2"/>
<path d="M15.6714 14.6873C15.7778 14.3741 16.2209 14.3741 16.3273 14.6873L17.0223 16.7318H19.2265C19.5659 16.7318 19.7029 17.1692 19.4241 17.3628L17.6545 18.5918L18.3389 20.605C18.4464 20.9214 18.0878 21.1916 17.8132 21.001L15.9993 19.7413L14.1855 21.001C13.9109 21.1916 13.5523 20.9214 13.6598 20.605L14.3442 18.5918L12.5746 17.3628C12.2958 17.1692 12.4328 16.7318 12.7722 16.7318H14.9764L15.6714 14.6873Z" fill="#F7A600"/>
</svg>
