<svg width="16" height="16" viewBox="0 0 16 16" fill="none" xmlns="http://www.w3.org/2000/svg">
<path d="M7.13177 12.2635C8.27036 12.2633 9.37615 11.8821 10.2731 11.1807L13.093 14.0006L14 13.0936L11.1801 10.2737C11.8819 9.3767 12.2633 8.27066 12.2635 7.13177C12.2635 4.30224 9.9613 2 7.13177 2C4.30224 2 2 4.30224 2 7.13177C2 9.9613 4.30224 12.2635 7.13177 12.2635ZM7.13177 3.28294C9.2544 3.28294 10.9806 5.00914 10.9806 7.13177C10.9806 9.2544 9.2544 10.9806 7.13177 10.9806C5.00914 10.9806 3.28294 9.2544 3.28294 7.13177C3.28294 5.00914 5.00914 3.28294 7.13177 3.28294Z" fill="#ADB1B8"/>
</svg>
